<?xml version="1.0" encoding="UTF-8"?>
<!DOCTYPE svg PUBLIC "-//W3C//DTD SVG 1.1//EN" "http://www.w3.org/Graphics/SVG/1.1/DTD/svg11.dtd">
<!-- Creator: CorelDRAW X6 -->
<svg xmlns="http://www.w3.org/2000/svg" xml:space="preserve" width="7.0536mm" height="7.0556mm" version="1.1" style="shape-rendering:geometricPrecision; text-rendering:geometricPrecision; image-rendering:optimizeQuality; fill-rule:evenodd; clip-rule:evenodd"
viewBox="0 0 705 705"
 xmlns:xlink="http://www.w3.org/1999/xlink">
 <defs>
  <style type="text/css">
   <![CDATA[
    .fil0 {fill:white}
   ]]>
  </style>
 </defs>
 <g id="Слой_x0020_1">
  <metadata id="CorelCorpID_0Corel-Layer"/>
  <path class="fil0" d="M40 705l624 0 41 -493 -178 0 0 -36c0,-95 -76,-174 -170,-176l-5 0 -4 0c-95,2 -171,81 -171,176l0 36 -177 0 0 9 40 484zm207 -529c0,-58 47,-105 105,-105 58,0 105,47 105,105l0 36 -210 0 0 -36zm35 212l-140 0 0 -71 140 0 0 71zm280 0l-140 0 0 -71 140 0 0 71z"/>
 </g>
</svg>
